<svg xmlns="http://www.w3.org/2000/svg" width="312.745" height="272.41" viewBox="0 0 312.745 272.41"><defs><style>.a{fill:#35c1ae;}.b{fill:rgba(8,211,148,0.69);}.c{fill:rgba(29,242,158,0.46);}</style></defs><g transform="translate(141.958 147.605)"><path class="a" d="M95.5,0c83.634-3.321,106.355,46.219,107.845,100.58-39.924,23.619-3.714,79.183-10.529,103.434-2.384,5.08-4.648,9.884-6.918,14.642-168.116-5.871-203.654-8.83-252.864-8.83C-119.708,209.826,0,228.186,0,147S-27.673,4.891,95.5,0Z" transform="matrix(0.999, -0.035, 0.035, 0.999, -40.065, -140.351)"/><path class="b" d="M43.121,11.709c37.1,0,97.157,16.315,120.442,36.236-199.45,0-234.106-5.321-234.106,0,0,25.957,96.55,3.024,49.882,3.024S0,72.957,0,47-3.547,11.709,43.121,11.709Z" transform="translate(-43 23)"/><path class="c" d="M76,0c41.974,0,92.915,26.888,76,108-7.189,34.472-14.413,59.151-23.675,76.334C-44.09,107.57,50.481,152.964,26.346,152.964-15.628,152.964,0,167.647,0,108S34.026,0,76,0Z" transform="matrix(0.914, -0.407, 0.407, 0.914, -139.357, -44.751)"/></g></svg>